<svg width="924" height="918" viewBox="0 0 924 918" fill="none" xmlns="http://www.w3.org/2000/svg"><path d="M69.07 429.687c-9.472-140.269 164.227-242.222 300.205-193.668 172.113-260.574 370.482-117.18 421.804 1.502 51.323 118.682 72.637 429.932-9.779 504.108-82.417 74.176-208.935 39.356-233.572 29.661s-12.3 32.296-169.564 69.509C220.899 878.012 78.542 569.956 69.07 429.687z" fill="url(#paint0_linear_1144_1851)" fill-opacity=".44"/><path d="M279.697 120.258c24.463 22.125 76.174 74.223 87.317 105.62" stroke="url(#paint1_linear_1144_1851)" stroke-width="22.437" stroke-linecap="round"/><ellipse cx="541" cy="243" rx="11" ry="8" fill="url(#paint2_linear_1144_1851)"/><mask id="a" style="mask-type:alpha" maskUnits="userSpaceOnUse" x="529" y="235" width="23" height="16"><ellipse cx="541" cy="243" rx="11" ry="8" fill="url(#paint3_linear_1144_1851)"/></mask><g mask="url(#a)"><path d="M543.5 230.501c-18.4-36-55-15-71 0-2.4 4.8-1 6.999 0 7.499 0 4.333 4.8 8.9 24-7.499 19.2-16.4 35 .833 40.5 11.499 9.833 11.167 24.9 24.501 6.5-11.499z" fill="url(#paint4_linear_1144_1851)"/></g><path d="M543.5 230.501c-18.4-36-55-15-71 0-2.4 4.8-1 6.999 0 7.499 0 4.333 4.8 8.9 24-7.499 19.2-16.4 35 .833 40.5 11.499 4-1.5 14.166 3.5 6.5-11.499z" fill="url(#paint5_linear_1144_1851)"/><circle cx="470.5" cy="234.5" r="3.5" fill="#fff"/><circle cx="471" cy="234" r="1" fill="#000" fill-opacity=".64"/><circle cx="475.5" cy="240.5" r="3.5" fill="#fff"/><circle cx="476" cy="240" r="1" fill="#000" fill-opacity=".64"/><path d="M479 229.5c1 1.167 3 4.3 3 7.5m3-13c1.833 1.333 5.4 4.6 5 7m3.5-10.5c2 .667 5.8 2.6 5 5m7-10c1.333.333 3.9 2.3 3.5 7.5m12.5-7.5c.833 1.167 2.1 4.5.5 8.5m15 1c.167 2-.4 6-4 6m11.5 6c.167 1.667-.4 5.2-4 6" stroke="#000" stroke-opacity=".1" stroke-linecap="round"/><path d="M466.434 216.709a.684.684 0 0 1-.967.009c-.627-.626-1.079-1.256-1.357-1.889-.213-.473-.349-1.029-.408-1.668-.041-.467-.029-1.218.036-2.252.065-1.047.035-1.798-.089-2.253a2.656 2.656 0 0 0-.701-1.198c-.621-.621-1.407-.922-2.359-.905-.958.012-1.789.37-2.493 1.074-.68.68-1.035 1.46-1.064 2.341-.02.602.144 1.243.494 1.922.292.568.208 1.283-.294 1.678-.517.407-1.277.322-1.606-.247-.598-1.035-.866-2.072-.803-3.113.089-1.378.734-2.667 1.934-3.868 1.271-1.271 2.631-1.939 4.08-2.004 1.449-.065 2.664.393 3.646 1.375a4.5 4.5 0 0 1 1.171 1.969c.212.745.274 1.848.186 3.308-.059.982-.059 1.662 0 2.04.059.379.192.748.399 1.109.112.195.284.431.518.71.389.464.39 1.15-.038 1.578l-.285.284zm3.535 2.87a1.286 1.286 0 1 1-1.819-1.818 1.286 1.286 0 1 1 1.819 1.818z" fill="url(#paint6_linear_1144_1851)"/><defs><linearGradient id="paint0_linear_1144_1851" x1="148.365" y1="295.13" x2="665.838" y2="620.21" gradientUnits="userSpaceOnUse"><stop stop-color="#FF0505"/><stop offset="1" stop-color="#FF4747"/></linearGradient><linearGradient id="paint1_linear_1144_1851" x1="307.342" y1="112.901" x2="370.553" y2="163.14" gradientUnits="userSpaceOnUse"><stop stop-color="#757575"/><stop offset="1" stop-color="#050505"/></linearGradient><linearGradient id="paint2_linear_1144_1851" x1="541" y1="235" x2="545.264" y2="244.338" gradientUnits="userSpaceOnUse"><stop stop-color="#EBB590"/><stop offset="1" stop-color="#BC735A"/></linearGradient><linearGradient id="paint3_linear_1144_1851" x1="541" y1="235" x2="545.264" y2="244.338" gradientUnits="userSpaceOnUse"><stop stop-color="#FFD8BE"/><stop offset="1" stop-color="#BC735A"/></linearGradient><linearGradient id="paint4_linear_1144_1851" x1="511.679" y1="210.623" x2="517.864" y2="244.493" gradientUnits="userSpaceOnUse"><stop stop-color="#FFE7CD"/><stop offset="1" stop-color="#FCB9A2"/></linearGradient><linearGradient id="paint5_linear_1144_1851" x1="508.73" y1="210.623" x2="512.288" y2="235.516" gradientUnits="userSpaceOnUse"><stop stop-color="#FFE7CD"/><stop offset="1" stop-color="#FCB9A2"/></linearGradient><linearGradient id="paint6_linear_1144_1851" x1="456.739" y1="206.358" x2="469.483" y2="210.184" gradientUnits="userSpaceOnUse"><stop stop-color="#757575"/><stop offset="1" stop-color="#050505"/></linearGradient></defs></svg>