<svg width="630" height="1080" viewBox="0 0 630 1080" fill="none" xmlns="http://www.w3.org/2000/svg"><path d="M246.5 976.5c73.6-109.6 47-442.667 24.5-595.5 13.2-91.2-55.833-304.333-92-399.5l546-31c6.167 229.667 14.8 709.3 0 790.5-14.8 81.2 6.167 280.83 18.5 370.5H86.778c-.617.02-1.21.02-1.778 0h1.778c24.567-.66 87.926-28.09 159.722-135z" fill="url(#paint0_linear_1116_1851)"/><path opacity=".06" d="M402.5 207c15.333 19.167 44.8 73.5 40 137.5m0 307.5c-13.667 5.833-42.8 38.2-50 121m247-338c-3.5 32-22.3 101.9-69.5 125.5M321 986c-12.667 21.67-44.5 69.1-70.5 85.5m134-62c-3.5 16.67-12.8 52.4-22 62m133-62c-7.333 13.33-17.6 44.4 0 62m90-62c4.5 19.83 12.9 62.4 10.5 74" stroke="#000" stroke-width="9" stroke-linecap="round"/><path d="M6.107 991.81l-3.478-3.805.894 5.077c.13.737.253 1.548.385 2.416.6 3.945 1.38 9.082 3.765 13.892 2.978 6.01 8.416 11.52 18.793 14.29 5.335 1.43 11.174.88 17.003-.8 5.837-1.69 11.76-4.54 17.33-7.83 11.136-6.57 21.027-15.02 26.211-19.852 3.966-3.699 5.032-9.888 3.892-16.093-1.15-6.262-4.585-12.885-10.13-17.821-5.509-4.902-13.084-8.126-22.494-7.683-14.413.677-22.223 10.447-27.416 20.102-1.713 3.185-3.194 6.464-4.527 9.418-.67 1.482-1.303 2.883-1.909 4.148-.926 1.935-1.795 3.566-2.668 4.822-.884 1.273-1.679 2.018-2.401 2.359-6.011 2.84-11.331-.54-13.25-2.64z" fill="#07C160" stroke="#07C160" stroke-width="3" stroke-linecap="round"/><path d="M79.5 965c-1.448-.073-4.072.843-8.02 4m-53.3 39.5c-4.277-2.39-7.78-6.23-10.18-10l10.18 10zm0 0c-1.06 1-3.88 2.7-6.68 1.5m6.68-1.5c1.549.86 3.2 1.54 4.935 1.95m-4.935-1.95c-.393-3.17-1.58-9.6-3.18-10m8.115 11.95c-.372 2.02-2.015 5.75-5.615 4.55m5.615-4.55c2.418.58 5.002.64 7.71 0m-7.71 0c-.372-1.98-1.415-6.25-2.615-7.45m10.325 7.45c-.275 3.35-.625 10.25.175 11.05m-.175-11.05c1.997-.47 4.06-1.32 6.175-2.64m-6.175 2.64c-1.442-2.82-4.725-8.45-6.325-8.45m12.5 5.81c2.167 3.56 7.3 10.39 10.5 9.19m-10.5-9.19c2.925-1.82 5.948-4.52 9.022-8.31M37 1007.81c-.5-2.94-3.3-9.01-10.5-9.81m19.522 1.5a63.46 63.46 0 0 0 2.978-4 274.532 274.532 0 0 1 2.446-3.5m-5.424 7.5C48.68 1001 54.2 1005 55 1009m-8.978-9.5c-2.508-2.5-9.422-7.2-17.022-6m22.446-1.5c6.185 1 18.754 3.8 19.554 7m-19.554-7c3.213-4.519 6.137-8.317 8.783-11.5M51.446 992c-2.148-3-8.546-8.4-16.946-6m25.73-5.5c6.923 1 20.97 4.3 21.77 9.5m-21.77-9.5c4.544-5.466 8.273-9.12 11.25-11.5m-11.25 11.5c-2.744-3.833-10.43-10.2-19.23-5m30.48-6.5c3.34.833 10.52 3.6 12.52 8m-12.52-8C67.32 965 57 958.3 49 963.5" stroke="#05974B" stroke-opacity=".47" stroke-width="2" stroke-linecap="round"/><path d="M163.806 897.753l-4.235-2.1 2.29 4.459c.173.338.358.722.559 1.138.935 1.936 2.208 4.575 4.247 6.612 2.578 2.576 6.343 4.207 12.117 3.103 3.03-.58 5.945-2.382 8.618-4.745 2.678-2.369 5.193-5.373 7.441-8.501 4.496-6.255 8.055-13.185 9.853-17.032 1.513-3.237.947-7.027-.676-10.129-1.65-3.151-4.53-5.908-8.212-7.208-3.67-1.295-8.118-1.135-12.872 1.488-7.353 4.057-9.708 11.459-10.729 17.907-.337 2.123-.545 4.27-.729 6.17-.091.939-.176 1.817-.268 2.603-.145 1.239-.305 2.267-.519 3.087-.22.841-.453 1.285-.637 1.502-2.233 2.632-5.079 2.225-6.248 1.646z" fill="#07C160" stroke="#07C160" stroke-width="3" stroke-linecap="round"/><path d="M195.526 866.301c-.729.315-1.882 1.44-3.327 4.074m-20.017 33.897c-2.507-.217-4.866-1.39-6.666-2.796l6.666 2.796zm0 0c-.363.787-1.486 2.375-3.068 2.425m3.068-2.425a9.098 9.098 0 0 0 2.762-.175m-2.762.175c-.708-1.577-2.339-4.686-3.196-4.507m5.958 4.332c.143 1.156-.067 3.529-2.046 3.775m2.046-3.775c1.292-.288 2.583-.885 3.822-1.885m-3.822 1.885c-.505-.958-1.714-2.958-2.503-3.298m6.325 1.413c.406 1.837 1.35 5.567 1.877 5.795m-1.877-5.795c.913-.737 1.798-1.692 2.633-2.904m-2.633 2.904c-1.171-1.136-3.712-3.31-4.505-2.919m7.138.015c1.651 1.353 5.301 3.704 6.693 2.288m-6.693-2.288c1.155-1.676 2.215-3.842 3.124-6.597m-3.124 6.597c-.724-1.43-3.096-3.955-6.795-2.617m9.919-3.98c.292-.885.569-1.831.828-2.841.217-.844.432-1.659.646-2.447m-1.474 5.288c1.561.143 4.945.907 5.99 2.825m-5.99-2.825c-1.648-.708-5.836-1.501-9.409.991m10.883-6.279c3.227-.983 9.91-2.576 10.825-1.081m-10.825 1.081c.86-3.173 1.693-5.894 2.489-8.223m-2.489 8.223c-1.552-1.06-5.597-2.349-9.372.972m11.861-9.195c3.594-1.164 11.091-2.854 12.33-.302m-12.33.302c1.367-3.998 2.623-6.84 3.713-8.825m-3.713 8.825c-1.98-1.355-6.822-2.84-10.341 2.059m14.054-10.884c1.791-.377 5.798-.67 7.502 1.166m-7.502-1.166c-2.71-1.097-8.91-2.115-12.033 2.588" stroke="#05974B" stroke-opacity=".47" stroke-width="2" stroke-linecap="round"/><defs><linearGradient id="paint0_linear_1116_1851" x1="414.25" y1="-49.5" x2="821.592" y2="318.445" gradientUnits="userSpaceOnUse"><stop stop-color="#DBA17A"/><stop offset="1" stop-color="#C9927F"/></linearGradient></defs></svg>